<svg xmlns="http://www.w3.org/2000/svg" height="800" width="1200" viewBox="-7.439985 -5.2496 64.47987 31.4976"><path d="M26.7096 19.5411c0 .6279.4612.8736 1.0366.8736.625 0 .863-.3087.863-.6153 0-.315-.1736-.441-.3373-.504-.2876-.1091-.6596-.1826-1.2201-.336-.6994-.189-.9027-.613-.9027-1.0352 0-.8168.7539-1.201 1.493-1.201.853 0 1.5673.4514 1.5673 1.304h-.7143c-.0347-.5271-.3918-.7203-.8828-.7203-.3324 0-.749.1197-.749.5313 0 .2855.1934.4451.486.525.0646.0188.9673.2519 1.1806.3149.5356.1596.7936.6173.7936 1.0394 0 .9155-.8135 1.281-1.627 1.281-.9324 0-1.6863-.4453-1.7012-1.4574h.7143m5.1732-.3779c-.0198-.4116-.3025-.7812-.739-.7812-.4563 0-.7639.3423-.7787.7812zm-1.5177.4283c0 .464.248.8757.7936.8757.377 0 .605-.166.7192-.4914h.62c-.1439.6446-.6944 1.0058-1.3392 1.0058-.9276 0-1.4484-.6467-1.4484-1.5539 0-.84.5506-1.5601 1.4335-1.5601.9275 0 1.5029.8399 1.3937 1.724h-2.1724m2.6684-1.6443h.615v.5712h.01c.0745-.315.4614-.651.8631-.651.1488 0 .1885.0106.248.0169v.6278c-.0942-.0105-.1934-.0273-.2827-.0273-.4464 0-.7986.359-.7986 1.01v1.407h-.6547v-2.9546m1.8649 0h.7093l.749 2.2679h.01l.724-2.2679h.6746l-1.0614 2.9545h-.7291l-1.0763-2.9545m3.2784 0h.6498v2.9545h-.6498zm0-1.1255h.6498v.6153h-.6498v-.6153m3.358 2.1146c-.0546-.3612-.3175-.5544-.6796-.5544-.3372 0-.8084.1764-.8084 1.073 0 .4914.2182 1.0122.7836 1.0122.377 0 .6399-.252.7044-.6741h.6497c-.119.7643-.5952 1.1885-1.354 1.1885-.9276 0-1.4385-.6572-1.4385-1.5266 0-.8903.4861-1.5874 1.4583-1.5874.6894 0 1.2697.3422 1.3342 1.0688h-.6497m3.214.2268c-.0248-.4116-.3025-.7812-.744-.7812-.4513 0-.7638.3423-.7787.7812zm-1.5227.4283c0 .464.253.8757.7936.8757.377 0 .6051-.166.7192-.4914h.62c-.1438.6446-.6944 1.0058-1.3392 1.0058-.9275 0-1.4483-.6467-1.4483-1.5539 0-.84.5506-1.5601 1.4334-1.5601.9325 0 1.503.8399 1.3938 1.724h-2.1725m3.1645.3611c.0298.378.3174.5145.6646.5145.248 0 .6795-.0525.6597-.3885-.0149-.3423-.491-.3822-.9672-.4914-.4811-.1029-.9473-.275-.9473-.8756 0-.6447.6943-.8441 1.235-.8441.6051 0 1.1557.2498 1.235.907h-.6795c-.0595-.3065-.3174-.3926-.6002-.3926-.1884 0-.5406.0441-.5406.3024 0 .3192.4811.3654.9622.4746.4762.107.9524.2792.9524.863 0 .7013-.7044.9596-1.3194.9596-.744 0-1.2995-.3318-1.3094-1.029h.6547" fill="#00d681"/><path d="M0 20.8913h20.9113V0H0z" fill="#00d681"/><path d="M7.1275 18.3127c0 .1953.124.38.3472.38.238 0 .4712-.1007.7093-.3086v-.6887c-.7143.0882-1.0565.2708-1.0565.6173zm1.0714.611c-.2927.1996-.615.2899-.9573.2899-.5456 0-.863-.3612-.863-.8484 0-.6488.5952-.9953 1.8302-1.1318v-.1638c0-.212-.1637-.3339-.4563-.3339-.2976 0-.5357.1155-.7093.334l-.5208-.2962c.2728-.378.6894-.569 1.24-.569.7589 0 1.1854.3276 1.1854.8651v2.1125h-.6795l-.0694-.2583m1.3541-2.5786l.6348-.0882.0694.3443c.3571-.2624.6448-.401.997-.401.6001 0 .9126.317.9126.947v2.0284h-.7688v-1.894c0-.357-.0942-.5187-.372-.5187-.2281 0-.4563.1071-.7142.3234v2.0893h-.7589v-2.8305m8.2584.9932c0-.3906-.2232-.6195-.5853-.6195-.3471 0-.5654.2226-.5951.6195zm-.5753 1.894c-.8581 0-1.369-.548-1.369-1.5097 0-.9723.5159-1.5224 1.359-1.5224.8333 0 1.3343.5354 1.3343 1.4825 0 .0483-.005.1008-.005.1512h-1.9344c.005.5522.2331.8294.6795.8294.2926 0 .486-.1155.6646-.3738l.5605.3129c-.248.4116-.6894.63-1.2896.63M2.5742 16.8344c-.5753 0-.6795.5187-.6795.8925 0 .3737.1042.8882.6795.8882.5704 0 .6746-.5145.6746-.8882 0-.3738-.1042-.8925-.6746-.8925zm0 2.4295c-.7588 0-1.4433-.483-1.4433-1.537 0-1.0563.6845-1.5371 1.4433-1.5371.754 0 1.4384.4808 1.4384 1.537 0 1.0542-.6844 1.5371-1.4384 1.5371m1.9642-2.9964h.7291v.3422c.1389-.1847.4811-.4031.7986-.4031.0298 0 .0694 0 .0992.004v.7181h-.0347c-.3323 0-.6944.0525-.8135.3129v1.936h-.7787v-2.9103m10.8673-.0103v2.757c0 .4893-.0397 1.2873-1.4284 1.2978-.5704.002-1.1012-.2268-1.2053-.7266l.7539-.1218c.0347.145.124.2877.5506.2877.3918 0 .5852-.191.5852-.6488v-.336l-.01-.0105c-.124.2163-.3075.422-.7539.422-.6745 0-1.2102-.4703-1.2102-1.4551 0-.9744.5505-1.5203 1.1705-1.5203.5804-.002.7986.2646.8482.4031l-.01-.002.0595-.3464zm-1.369 2.2972c.5804-.004.635-.5964.635-.9827 0-.4578-.2282-.8253-.6399-.8253-.2728 0-.5803.2016-.5803.8568 0 .359.0248.9533.5853.9512m6.0809-2.4295h-.1587v-.8043h-.005l-.3174.8043h-.1042l-.3125-.8043h-.005v.8043h-.1537v-.9638h.243l.2877.7307.2827-.7307h.243zm-1.2549-.8358h-.3025v.8358h-.1587v-.8358h-.3026v-.128h.7638v.128" fill="#fff"/><path d="M26.8484 14.5645h1.2648c.4365 0 .6845-.2352.6845-.6467 0-.399-.248-.6279-.6845-.6279h-1.2648zm0-1.789h1.1656c.3472 0 .6002-.1995.6002-.567 0-.4116-.2083-.5586-.6002-.5586h-1.1656zm-.7142-1.7093h1.984c.734 0 1.2152.3317 1.2152 1.012 0 .4117-.2133.7077-.5853.8694v.0105c.496.1092.7638.4977.7638 1.052 0 .6405-.4414 1.136-1.5028 1.136h-1.875v-4.08m6.5324 4.0801h-.6398v-.4116h-.015c-.1587.2982-.5108.4914-.8382.4914-.7737 0-1.106-.3885-1.106-1.1592v-1.8751h.6547v1.8121c0 .5208.2083.7077.5654.7077.5406 0 .7242-.3486.7242-.8042v-1.7156h.6547v2.9545m1.1755-.9471c.0347.3759.3224.5124.6696.5124.248 0 .6746-.0504.6597-.3885-.0198-.3423-.491-.3821-.9672-.4913-.4811-.103-.9474-.273-.9474-.8736 0-.6467.6944-.8462 1.235-.8462.6052 0 1.1558.252 1.2351.9092h-.6795c-.0595-.3087-.3174-.3947-.6051-.3947-.1885 0-.5357.0462-.5357.3023 0 .3213.4811.3654.9622.4746.4712.1092.9524.2814.9524.863 0 .7035-.7093.9597-1.3194.9597-.744 0-1.2995-.3318-1.3094-1.0269h.6497m2.4949-2.0074h.6547v2.9545h-.6547zm0-1.1255h.6547v.6173h-.6547v-.6173m1.364 1.1255h.615v.4347l.01.0126c.1984-.3276.5357-.5271.9226-.5271.6398 0 1.0465.3444 1.0465 1.0058v2.0285h-.6497v-1.8563c-.015-.464-.1984-.6635-.5803-.6635-.4365 0-.7143.3422-.7143.7769v1.7429h-.6497v-2.9545m5.312 1.2179c-.0248-.4116-.3025-.7832-.744-.7832-.4513 0-.7638.3422-.7787.7832zm-1.5227.4284c0 .462.253.8735.7936.8735.377 0 .6051-.1638.7242-.4914h.615c-.1438.6468-.6894 1.0059-1.3392 1.0059-.9225 0-1.4433-.6447-1.4433-1.554 0-.8399.5456-1.5601 1.4284-1.5601.9325 0 1.503.84 1.3938 1.726h-2.1725m3.1645.3612c.0347.3759.3174.5124.6696.5124.243 0 .6746-.0504.6547-.3885-.0149-.3423-.491-.3821-.9672-.4913-.4811-.103-.9473-.273-.9473-.8736 0-.6467.6993-.8462 1.235-.8462.6051 0 1.1557.252 1.235.9092h-.6795c-.0595-.3087-.3174-.3947-.6001-.3947-.1885 0-.5407.0462-.5407.3023 0 .3213.4811.3654.9623.4746.4761.1092.9572.2814.9572.863 0 .7035-.7092.9597-1.3243.9597-.744 0-1.2995-.3318-1.3094-1.0269h.6547m2.9661 0c.0347.3759.3224.5124.6696.5124.248 0 .6745-.0504.6596-.3885-.0198-.3423-.496-.3821-.9672-.4913-.481-.103-.9523-.273-.9523-.8736 0-.6467.6994-.8462 1.235-.8462.6101 0 1.1557.252 1.2351.9092h-.6795c-.0546-.3087-.3125-.3947-.6002-.3947-.1885 0-.5357.0462-.5357.3023 0 .3213.4812.3654.9573.4746.4762.1092.9573.2814.9573.863 0 .7035-.7093.9597-1.3194.9597-.744 0-1.2995-.3318-1.3094-1.0269h.6498" fill="#00d681"/></svg>